<?xml version="1.0" encoding="UTF-8"?>
<svg width="24px" height="24px" viewBox="0 0 24 24" version="1.1" xmlns="http://www.w3.org/2000/svg" xmlns:xlink="http://www.w3.org/1999/xlink">
    <!-- Generator: Sketch 48.2 (47327) - http://www.bohemiancoding.com/sketch -->
    <title>Icon / Utilities / Search / sm</title>
    <desc>Created with Sketch.</desc>
    <defs>
        <path d="M16.0318994,14.6176858 L23.4852814,22.0710678 L22.0710678,23.4852814 L14.6176858,16.0318994 C13.078015,17.2635271 11.1250137,18 9,18 C4.02943725,18 0,13.9705627 0,9 C0,4.02943725 4.02943725,0 9,0 C13.9705627,0 18,4.02943725 18,9 C18,11.1250137 17.2635271,13.078015 16.0318994,14.6176858 Z M9,16 C12.8659932,16 16,12.8659932 16,9 C16,5.13400675 12.8659932,2 9,2 C5.13400675,2 2,5.13400675 2,9 C2,12.8659932 5.13400675,16 9,16 Z" id="path-1"></path>
        <rect id="path-3" x="0" y="0" width="24" height="24"></rect>
    </defs>
    <g id="Form-Inputs-/-search" stroke="none" stroke-width="1" fill="none" fill-rule="evenodd" transform="translate(-260.000000, -30.000000)">
        <g id="Icon-/-Utilities-/-Search-/-sm" transform="translate(260.000000, 30.000000)">
            <mask id="mask-2" fill="white">
                <use xlink:href="#path-1"></use>
            </mask>
            <use id="Icon-Shape" fill="#000000" fill-rule="nonzero" xlink:href="#path-1"></use>
            <g id="ðŸ–-/-Black" mask="url(#mask-2)">
                <mask id="mask-4" fill="white">
                    <use xlink:href="#path-3"></use>
                </mask>
                <use id="Color" fill="#000000" fill-rule="evenodd" xlink:href="#path-3"></use>
            </g>
        </g>
    </g>
</svg>